<svg width="33" height="23" viewBox="0 0 33 23" fill="none" xmlns="http://www.w3.org/2000/svg">
<path d="M2 10C1.17157 10 0.5 10.6716 0.5 11.5C0.5 12.3284 1.17157 13 2 13V10ZM31.7916 12.5607C32.3774 11.9749 32.3774 11.0251 31.7916 10.4393L22.2457 0.893398C21.6599 0.307611 20.7101 0.307611 20.1244 0.893398C19.5386 1.47919 19.5386 2.42893 20.1244 3.01472L28.6096 11.5L20.1244 19.9853C19.5386 20.5711 19.5386 21.5208 20.1244 22.1066C20.7101 22.6924 21.6599 22.6924 22.2457 22.1066L31.7916 12.5607ZM2 13H30.731V10H2V13Z" fill="#513668"/>
</svg>
