<svg width="34" height="32" viewBox="0 0 34 32" fill="none" xmlns="http://www.w3.org/2000/svg">
<path id="Vector" d="M17.17 27.1172L17 27.2916L16.813 27.1172C8.738 19.6011 3.4 14.6311 3.4 9.59128C3.4 6.10354 5.95 3.48774 9.35 3.48774C11.968 3.48774 14.518 5.23161 15.419 7.60327H18.581C19.482 5.23161 22.032 3.48774 24.65 3.48774C28.05 3.48774 30.6 6.10354 30.6 9.59128C30.6 14.6311 25.262 19.6011 17.17 27.1172ZM24.65 0C21.692 0 18.853 1.41253 17 3.62725C15.147 1.41253 12.308 0 9.35 0C4.114 0 0 4.20272 0 9.59128C0 16.1657 5.78 21.5542 14.535 29.6981L17 32L19.465 29.6981C28.22 21.5542 34 16.1657 34 9.59128C34 4.20272 29.886 0 24.65 0Z" fill="black"/>
</svg>
