<svg width="42" height="42" viewBox="0 0 42 42" fill="none" xmlns="http://www.w3.org/2000/svg">
<path d="M21.0003 0.166656C32.5066 0.166656 41.8337 9.49374 41.8337 21C41.8337 32.5062 32.5066 41.8333 21.0003 41.8333C9.49408 41.8333 0.166992 32.5062 0.166992 21C0.166992 9.49374 9.49408 0.166656 21.0003 0.166656ZM21.0003 4.33332C16.5801 4.33332 12.3408 6.08927 9.21521 9.21488C6.08961 12.3405 4.33366 16.5797 4.33366 21C4.33366 25.4203 6.08961 29.6595 9.21521 32.7851C12.3408 35.9107 16.5801 37.6667 21.0003 37.6667C25.4206 37.6667 29.6598 35.9107 32.7854 32.7851C35.911 29.6595 37.667 25.4203 37.667 21C37.667 16.5797 35.911 12.3405 32.7854 9.21488C29.6598 6.08927 25.4206 4.33332 21.0003 4.33332ZM21.0003 29.3333C21.5529 29.3333 22.0828 29.5528 22.4735 29.9435C22.8642 30.3342 23.0837 30.8641 23.0837 31.4167C23.0837 31.9692 22.8642 32.4991 22.4735 32.8898C22.0828 33.2805 21.5529 33.5 21.0003 33.5C20.4478 33.5 19.9179 33.2805 19.5272 32.8898C19.1365 32.4991 18.917 31.9692 18.917 31.4167C18.917 30.8641 19.1365 30.3342 19.5272 29.9435C19.9179 29.5528 20.4478 29.3333 21.0003 29.3333ZM21.0003 9.54166C22.7551 9.54171 24.455 10.1528 25.8082 11.27C27.1614 12.3872 28.0833 13.9407 28.4155 15.6637C28.7478 17.3867 28.4697 19.1716 27.629 20.7119C26.7884 22.2521 25.4375 23.4516 23.8087 24.1042C23.5686 24.1953 23.3516 24.3382 23.1732 24.5229C23.0816 24.6271 23.067 24.7604 23.0691 24.8979L23.0837 25.1667C23.0831 25.6977 22.8797 26.2084 22.5152 26.5945C22.1507 26.9806 21.6525 27.213 21.1224 27.2441C20.5923 27.2752 20.0704 27.1028 19.6632 26.7619C19.256 26.4211 18.9943 25.9377 18.9316 25.4104L18.917 25.1667V24.6458C18.917 22.2437 20.8545 20.8021 22.2587 20.2375C22.8301 20.0093 23.3287 19.6297 23.7007 19.1395C24.0727 18.6494 24.3042 18.0671 24.3703 17.4553C24.4364 16.8435 24.3346 16.2253 24.0758 15.6669C23.817 15.1086 23.411 14.6314 22.9014 14.2864C22.3919 13.9414 21.7979 13.7418 21.1835 13.7089C20.569 13.676 19.9571 13.8111 19.4136 14.0997C18.8702 14.3883 18.4156 14.8195 18.0986 15.347C17.7817 15.8745 17.6145 16.4784 17.6149 17.0937C17.6149 17.6463 17.3954 18.1762 17.0047 18.5669C16.614 18.9576 16.0841 19.1771 15.5316 19.1771C14.979 19.1771 14.4491 18.9576 14.0584 18.5669C13.6677 18.1762 13.4482 17.6463 13.4482 17.0937C13.4482 15.0908 14.2439 13.1699 15.6602 11.7536C17.0765 10.3373 18.9974 9.54166 21.0003 9.54166Z" fill="#E1E1EF" fill-opacity="0.5"/>
</svg>
